<mxfile host="app.diagrams.net" modified="2023-01-19T04:28:05.936Z" agent="5.0 (Windows NT 10.0; Win64; x64) AppleWebKit/537.36 (KHTML, like Gecko) Chrome/109.0.0.0 Safari/537.36" etag="JikbaUxhlytYO3kQw5Ag" version="20.8.5" type="github">
  <diagram id="agrCli6fGUwcmTfTBDdW" name="Page-1">
    <mxGraphModel dx="1320" dy="913" grid="1" gridSize="10" guides="1" tooltips="1" connect="1" arrows="1" fold="1" page="1" pageScale="1" pageWidth="850" pageHeight="1100" math="0" shadow="0">
      <root>
        <mxCell id="0" />
        <mxCell id="1" parent="0" />
        <mxCell id="0VArVFVRRGKt9daIEMkU-1" value="" style="sketch=0;pointerEvents=1;shadow=0;dashed=0;html=1;strokeColor=none;fillColor=#505050;labelPosition=center;verticalLabelPosition=bottom;outlineConnect=0;verticalAlign=top;align=center;shape=mxgraph.office.clouds.cloud_exchange_online;" parent="1" vertex="1">
          <mxGeometry x="290" y="285.75" width="110" height="69.5" as="geometry" />
        </mxCell>
        <mxCell id="0VArVFVRRGKt9daIEMkU-2" value="Proofpoint" style="whiteSpace=wrap;html=1;aspect=fixed;" parent="1" vertex="1">
          <mxGeometry x="30" y="280.5" width="80" height="80" as="geometry" />
        </mxCell>
        <mxCell id="0VArVFVRRGKt9daIEMkU-5" value="" style="endArrow=classic;html=1;rounded=0;exitX=1;exitY=0.5;exitDx=0;exitDy=0;" parent="1" source="0VArVFVRRGKt9daIEMkU-2" target="0VArVFVRRGKt9daIEMkU-1" edge="1">
          <mxGeometry width="50" height="50" relative="1" as="geometry">
            <mxPoint x="400" y="460" as="sourcePoint" />
            <mxPoint x="450" y="410" as="targetPoint" />
          </mxGeometry>
        </mxCell>
        <mxCell id="0VArVFVRRGKt9daIEMkU-6" value="&lt;h1&gt;Mail Flow&lt;/h1&gt;Email Comes in through Proofpoint&lt;p&gt;.&lt;/p&gt;" style="text;html=1;strokeColor=none;fillColor=none;spacing=5;spacingTop=-20;whiteSpace=wrap;overflow=hidden;rounded=0;" parent="1" vertex="1">
          <mxGeometry y="140" width="150" height="120" as="geometry" />
        </mxCell>
        <mxCell id="0VArVFVRRGKt9daIEMkU-7" value="SMTP Over TLS" style="text;html=1;strokeColor=none;fillColor=none;align=center;verticalAlign=middle;whiteSpace=wrap;rounded=0;" parent="1" vertex="1">
          <mxGeometry x="150" y="286" width="60" height="30" as="geometry" />
        </mxCell>
        <mxCell id="0VArVFVRRGKt9daIEMkU-8" value="Was User Added To Gmail-User Group" style="rhombus;whiteSpace=wrap;html=1;" parent="1" vertex="1">
          <mxGeometry x="275" y="420" width="140" height="120" as="geometry" />
        </mxCell>
        <mxCell id="0VArVFVRRGKt9daIEMkU-12" value="&lt;div style=&quot;&quot;&gt;&lt;span style=&quot;background-color: initial;&quot;&gt;&lt;b&gt;&lt;i&gt;Outlook&amp;nbsp;&lt;/i&gt;&lt;/b&gt;&lt;/span&gt;&lt;/div&gt;&lt;div style=&quot;text-align: center;&quot;&gt;&lt;span style=&quot;background-color: initial;&quot;&gt;Mail is Delivered to users O365 mailbox account&amp;nbsp;&lt;/span&gt;&lt;/div&gt;" style="text;html=1;strokeColor=none;fillColor=none;align=left;verticalAlign=middle;whiteSpace=wrap;rounded=0;" parent="1" vertex="1">
          <mxGeometry x="570" y="540" width="145" height="50" as="geometry" />
        </mxCell>
        <mxCell id="0VArVFVRRGKt9daIEMkU-14" value="Email Rule to Redirect&lt;br&gt;all inbound email to&amp;nbsp;&lt;br&gt;Google Workspace&amp;nbsp;&lt;br&gt;Connector for users in&lt;br&gt;Gmail-Users&lt;br&gt;Microsoft 365 Group" style="shape=parallelogram;perimeter=parallelogramPerimeter;whiteSpace=wrap;html=1;fixedSize=1;" parent="1" vertex="1">
          <mxGeometry x="262" y="640" width="162.5" height="110" as="geometry" />
        </mxCell>
        <mxCell id="0VArVFVRRGKt9daIEMkU-15" value="&lt;div style=&quot;&quot;&gt;&lt;span style=&quot;background-color: initial;&quot;&gt;&lt;b&gt;&lt;i&gt;Gmail&lt;/i&gt;&lt;/b&gt;&lt;/span&gt;&lt;/div&gt;&lt;div style=&quot;&quot;&gt;All redirected mail shows up in users Gmail inbox&lt;/div&gt;" style="text;html=1;strokeColor=none;fillColor=none;align=left;verticalAlign=middle;whiteSpace=wrap;rounded=0;" parent="1" vertex="1">
          <mxGeometry x="595" y="920" width="120" height="80" as="geometry" />
        </mxCell>
        <mxCell id="0VArVFVRRGKt9daIEMkU-16" value="" style="sketch=0;pointerEvents=1;shadow=0;dashed=0;html=1;strokeColor=none;fillColor=#505050;labelPosition=center;verticalLabelPosition=bottom;verticalAlign=top;outlineConnect=0;align=center;shape=mxgraph.office.services.outlook_web_app;" parent="1" vertex="1">
          <mxGeometry x="580" y="430" width="160" height="100" as="geometry" />
        </mxCell>
        <mxCell id="0VArVFVRRGKt9daIEMkU-17" value="" style="endArrow=classic;html=1;rounded=0;exitX=1;exitY=0.5;exitDx=0;exitDy=0;" parent="1" source="0VArVFVRRGKt9daIEMkU-8" target="0VArVFVRRGKt9daIEMkU-16" edge="1">
          <mxGeometry relative="1" as="geometry">
            <mxPoint x="432.5" y="480" as="sourcePoint" />
            <mxPoint x="532.5" y="480" as="targetPoint" />
          </mxGeometry>
        </mxCell>
        <mxCell id="0VArVFVRRGKt9daIEMkU-18" value="" style="shape=message;html=1;outlineConnect=0;" parent="0VArVFVRRGKt9daIEMkU-17" vertex="1">
          <mxGeometry width="20" height="14" relative="1" as="geometry">
            <mxPoint x="-10" y="-7" as="offset" />
          </mxGeometry>
        </mxCell>
        <mxCell id="0VArVFVRRGKt9daIEMkU-21" value="" style="endArrow=classic;html=1;rounded=0;exitX=0.5;exitY=1;exitDx=0;exitDy=0;entryX=0.5;entryY=0;entryDx=0;entryDy=0;" parent="1" source="0VArVFVRRGKt9daIEMkU-8" target="0VArVFVRRGKt9daIEMkU-14" edge="1">
          <mxGeometry relative="1" as="geometry">
            <mxPoint x="370" y="580" as="sourcePoint" />
            <mxPoint x="470" y="580" as="targetPoint" />
          </mxGeometry>
        </mxCell>
        <mxCell id="0VArVFVRRGKt9daIEMkU-22" value="" style="shape=message;html=1;outlineConnect=0;" parent="0VArVFVRRGKt9daIEMkU-21" vertex="1">
          <mxGeometry width="20" height="14" relative="1" as="geometry">
            <mxPoint x="-10" y="-7" as="offset" />
          </mxGeometry>
        </mxCell>
        <mxCell id="0VArVFVRRGKt9daIEMkU-25" value="" style="endArrow=classic;html=1;rounded=0;" parent="1" source="0VArVFVRRGKt9daIEMkU-1" target="0VArVFVRRGKt9daIEMkU-8" edge="1">
          <mxGeometry relative="1" as="geometry">
            <mxPoint x="240.75" y="350" as="sourcePoint" />
            <mxPoint x="240" y="450" as="targetPoint" />
          </mxGeometry>
        </mxCell>
        <mxCell id="0VArVFVRRGKt9daIEMkU-26" value="" style="shape=message;html=1;outlineConnect=0;" parent="0VArVFVRRGKt9daIEMkU-25" vertex="1">
          <mxGeometry width="20" height="14" relative="1" as="geometry">
            <mxPoint x="-10" y="-7" as="offset" />
          </mxGeometry>
        </mxCell>
        <mxCell id="0VArVFVRRGKt9daIEMkU-27" value="" style="dashed=0;outlineConnect=0;html=1;align=center;labelPosition=center;verticalLabelPosition=bottom;verticalAlign=top;shape=mxgraph.weblogos.gmail" parent="1" vertex="1">
          <mxGeometry x="630" y="840" width="100" height="60" as="geometry" />
        </mxCell>
        <mxCell id="0VArVFVRRGKt9daIEMkU-28" value="Email Connector Setup to&amp;nbsp;forward all email to ASPMX.L.GOOGLE.COM over TLS" style="shape=process;whiteSpace=wrap;html=1;backgroundOutline=1;" parent="1" vertex="1">
          <mxGeometry x="227.5" y="830" width="235" height="97" as="geometry" />
        </mxCell>
        <mxCell id="0VArVFVRRGKt9daIEMkU-29" value="" style="endArrow=classic;html=1;rounded=0;" parent="1" edge="1">
          <mxGeometry relative="1" as="geometry">
            <mxPoint x="344" y="750" as="sourcePoint" />
            <mxPoint x="344" y="830" as="targetPoint" />
          </mxGeometry>
        </mxCell>
        <mxCell id="0VArVFVRRGKt9daIEMkU-30" value="" style="shape=message;html=1;outlineConnect=0;" parent="0VArVFVRRGKt9daIEMkU-29" vertex="1">
          <mxGeometry width="20" height="14" relative="1" as="geometry">
            <mxPoint x="-10" y="-7" as="offset" />
          </mxGeometry>
        </mxCell>
        <mxCell id="0VArVFVRRGKt9daIEMkU-31" value="" style="endArrow=classic;html=1;rounded=0;" parent="1" target="0VArVFVRRGKt9daIEMkU-27" edge="1">
          <mxGeometry relative="1" as="geometry">
            <mxPoint x="460" y="870" as="sourcePoint" />
            <mxPoint x="620" y="870" as="targetPoint" />
          </mxGeometry>
        </mxCell>
        <mxCell id="0VArVFVRRGKt9daIEMkU-32" value="" style="shape=message;html=1;outlineConnect=0;" parent="0VArVFVRRGKt9daIEMkU-31" vertex="1">
          <mxGeometry width="20" height="14" relative="1" as="geometry">
            <mxPoint x="-10" y="-7" as="offset" />
          </mxGeometry>
        </mxCell>
        <mxCell id="_g9n8yCAXfj4UwBWWIFw-1" value="&lt;b&gt;Yes&lt;/b&gt;" style="text;html=1;strokeColor=none;fillColor=none;align=center;verticalAlign=middle;whiteSpace=wrap;rounded=0;" vertex="1" parent="1">
          <mxGeometry x="290" y="530" width="60" height="30" as="geometry" />
        </mxCell>
        <mxCell id="_g9n8yCAXfj4UwBWWIFw-5" value="&lt;b&gt;No&lt;/b&gt;" style="text;html=1;strokeColor=none;fillColor=none;align=center;verticalAlign=middle;whiteSpace=wrap;rounded=0;" vertex="1" parent="1">
          <mxGeometry x="410" y="450" width="30" height="20" as="geometry" />
        </mxCell>
      </root>
    </mxGraphModel>
  </diagram>
</mxfile>
